<!DOCTYPE svg PUBLIC "-//W3C//DTD SVG 1.1//EN" "http://www.w3.org/Graphics/SVG/1.1/DTD/svg11.dtd">
<!-- Uploaded to: SVG Repo, www.svgrepo.com, Transformed by: SVG Repo Mixer Tools -->
<svg fill="#0e2dc8" height="256px" width="256px" version="1.1" id="Layer_1" xmlns="http://www.w3.org/2000/svg" xmlns:xlink="http://www.w3.org/1999/xlink" viewBox="0 0 511.999 511.999" xml:space="preserve">
<g id="SVGRepo_bgCarrier" stroke-width="0"/>
<g id="SVGRepo_tracerCarrier" stroke-linecap="round" stroke-linejoin="round"/>
<g id="SVGRepo_iconCarrier"> <g> <g> <path d="M507.456,199.656c-2.783-1.379-6.107-1.06-8.578,0.822l-102.645,78.205c-1.466-2.184-3.959-3.621-6.787-3.621h-24.511 v-35.404c0-22.526-18.325-40.851-40.851-40.851h-1.155c25.328-17.152,42.006-46.154,42.006-78.979 c0-52.56-42.76-95.319-95.319-95.319c-38.83,0-72.306,23.342-87.149,56.728C167.626,47.851,134.149,24.51,95.319,24.51 C42.76,24.51,0,67.269,0,119.829c0,32.825,16.678,61.827,42.006,78.979h-1.155C18.325,198.807,0,217.133,0,239.659v206.979 c0,22.526,18.325,40.851,40.851,40.851h283.234c22.526,0,40.851-18.325,40.851-40.851v-35.404h24.511 c4.512,0,8.17-3.657,8.17-8.17V298.174l98.043-74.699v239.347l-68.58-52.251c-3.588-2.733-8.715-2.044-11.45,1.548 c-2.734,3.588-2.043,8.715,1.547,11.45l81.701,62.249c1.451,1.106,3.196,1.671,4.952,1.671c1.235,0,2.476-0.28,3.625-0.849 c2.783-1.379,4.544-4.216,4.544-7.322V206.978C512,203.872,510.239,201.035,507.456,199.656z M269.617,40.85 c43.549,0,78.979,35.429,78.979,78.979c0,43.549-35.429,78.979-78.979,78.979c-43.549,0-78.979-35.429-78.979-78.979 C190.638,76.279,226.068,40.85,269.617,40.85z M216.304,198.807h-67.671c14.734-9.977,26.537-23.969,33.836-40.388 C189.767,174.838,201.569,188.83,216.304,198.807z M16.34,119.829c0-43.549,35.429-78.979,78.979-78.979 c43.549,0,78.979,35.429,78.979,78.979c0,43.549-35.429,78.979-78.979,78.979S16.34,163.378,16.34,119.829z M348.596,446.637 c0,13.515-10.995,24.511-24.511,24.511H40.851c-13.516,0-24.511-10.996-24.511-24.511V239.659 c0-13.515,10.995-24.511,24.511-24.511h283.234c13.516,0,24.511,10.996,24.511,24.511V446.637z M381.277,394.893h-16.34V291.403 h16.34V394.893z"/> </g> </g> <g> <g> <path d="M182.468,242.382H51.745c-4.512,0-8.17,3.657-8.17,8.17c0,4.513,3.658,8.17,8.17,8.17h130.723 c4.512,0,8.17-3.657,8.17-8.17C190.638,246.039,186.98,242.382,182.468,242.382z"/> </g> </g> <g> <g> <path d="M291.404,275.063H51.745c-4.512,0-8.17,3.657-8.17,8.17v119.83c0,4.513,3.658,8.17,8.17,8.17h32.681 c4.512,0,8.17-3.657,8.17-8.17s-3.658-8.17-8.17-8.17H59.915V291.403h223.319v103.489H117.106c-4.512,0-8.17,3.657-8.17,8.17 s3.658,8.17,8.17,8.17h174.298c4.512,0,8.17-3.657,8.17-8.17v-119.83C299.574,278.72,295.916,275.063,291.404,275.063z"/> </g> </g> <g> <g> <path d="M269.617,78.978c-22.526,0-40.851,18.325-40.851,40.851c0,3.565,0.469,7.123,1.394,10.573 c1.17,4.36,5.656,6.946,10.008,5.775c4.359-1.169,6.944-5.651,5.775-10.009c-0.554-2.069-0.837-4.202-0.837-6.339 c0-13.515,10.995-24.511,24.511-24.511s24.511,10.996,24.511,24.511c0,13.515-10.995,24.511-24.511,24.511 c-2.134,0-4.268-0.282-6.341-0.838c-4.357-1.17-8.839,1.418-10.007,5.777c-1.169,4.359,1.418,8.838,5.776,10.007 c3.452,0.926,7.01,1.394,10.572,1.394c22.526,0,40.851-18.325,40.851-40.851S292.143,78.978,269.617,78.978z"/> </g> </g> <g> <g> <path d="M95.319,78.978c-22.525,0-40.851,18.325-40.851,40.851c0,3.565,0.47,7.123,1.394,10.573 c1.17,4.36,5.655,6.946,10.008,5.775c4.359-1.169,6.944-5.651,5.775-10.009c-0.554-2.069-0.837-4.202-0.837-6.339 c0-13.515,10.995-24.511,24.511-24.511s24.511,10.996,24.511,24.511c0,13.515-10.995,24.511-24.511,24.511 c-2.134,0-4.268-0.282-6.341-0.838c-4.359-1.17-8.838,1.418-10.007,5.777s1.418,8.838,5.776,10.007 c3.452,0.926,7.01,1.394,10.572,1.394c22.526,0,40.851-18.325,40.851-40.851S117.845,78.978,95.319,78.978z"/> </g> </g> </g>
</svg>